<svg width="520" height="320" viewBox="0 0 520 320" fill="none" xmlns="http://www.w3.org/2000/svg">
  <defs>
    <linearGradient id="aboutbg" x1="0" y1="0" x2="520" y2="320" gradientUnits="userSpaceOnUse">
      <stop stop-color="#0F172A"/>
      <stop offset="1" stop-color="#1E293B"/>
    </linearGradient>
    <linearGradient id="screen" x1="0" y1="0" x2="1" y2="1">
      <stop stop-color="#0EA5E9"/>
      <stop offset="1" stop-color="#8B5CF6"/>
    </linearGradient>
  </defs>
  <rect width="520" height="320" rx="26" fill="url(#aboutbg)"/>
  <rect x="70" y="52" width="380" height="188" rx="20" fill="#0B1224" stroke="#334155"/>
  <rect x="88" y="74" width="344" height="18" rx="9" fill="#111C34"/>
  <circle cx="102" cy="83" r="4" fill="#38BDF8"/>
  <circle cx="117" cy="83" r="4" fill="#8B5CF6"/>
  <circle cx="132" cy="83" r="4" fill="#22C55E"/>
  <rect x="88" y="110" width="134" height="108" rx="16" fill="url(#screen)" fill-opacity="0.18" stroke="#38BDF8" stroke-opacity="0.5"/>
  <text x="116" y="174" fill="#E0F2FE" font-family="Arial, Helvetica, sans-serif" font-size="44" font-weight="700">&lt;/&gt;</text>

  <rect x="242" y="112" width="172" height="24" rx="12" fill="#172554"/>
  <text x="262" y="128" fill="#BFDBFE" font-family="Arial, Helvetica, sans-serif" font-size="12" font-weight="700">Computer Science Student</text>

  <rect x="242" y="148" width="134" height="24" rx="12" fill="#0F3D34"/>
  <text x="272" y="164" fill="#BBF7D0" font-family="Arial, Helvetica, sans-serif" font-size="12" font-weight="700">Android + Kotlin</text>

  <rect x="242" y="184" width="148" height="24" rx="12" fill="#3B1D6B"/>
  <text x="276" y="200" fill="#E9D5FF" font-family="Arial, Helvetica, sans-serif" font-size="12" font-weight="700">APIs + UI Design</text>

  <rect x="170" y="244" width="180" height="18" rx="9" fill="#1E293B"/>
  <rect x="152" y="270" width="216" height="16" rx="8" fill="#111827"/>
</svg>

