<svg width="1200" height="360" viewBox="0 0 1200 360" fill="none" xmlns="http://www.w3.org/2000/svg">
  <defs>
    <linearGradient id="bg" x1="0" y1="0" x2="1200" y2="360" gradientUnits="userSpaceOnUse">
      <stop stop-color="#0F172A"/>
      <stop offset="0.55" stop-color="#132A57"/>
      <stop offset="1" stop-color="#3B1D6B"/>
    </linearGradient>
    <linearGradient id="chip" x1="0" y1="0" x2="1" y2="1">
      <stop stop-color="#38BDF8"/>
      <stop offset="1" stop-color="#8B5CF6"/>
    </linearGradient>
  </defs>
  <rect width="1200" height="360" rx="28" fill="url(#bg)"/>
  <circle cx="1050" cy="74" r="110" fill="#38BDF8" fill-opacity="0.08"/>
  <circle cx="1138" cy="250" r="124" fill="#8B5CF6" fill-opacity="0.12"/>
  <circle cx="889" cy="310" r="64" fill="#22C55E" fill-opacity="0.10"/>

  <text x="60" y="92" fill="#E2E8F0" font-family="Arial, Helvetica, sans-serif" font-size="18" font-weight="700">PORTFOLIO PROFILE</text>
  <text x="60" y="150" fill="white" font-family="Arial, Helvetica, sans-serif" font-size="44" font-weight="700">Building practical software</text>
  <text x="60" y="200" fill="white" font-family="Arial, Helvetica, sans-serif" font-size="44" font-weight="700">with clean design and solid structure</text>
  <text x="60" y="246" fill="#CBD5E1" font-family="Arial, Helvetica, sans-serif" font-size="22">Kotlin • Java • Python • C • Android • APIs • UI polish</text>

  <rect x="60" y="278" width="170" height="42" rx="21" fill="url(#chip)"/>
  <text x="92" y="305" fill="white" font-family="Arial, Helvetica, sans-serif" font-size="18" font-weight="700">UI + Design</text>

  <rect x="246" y="278" width="168" height="42" rx="21" fill="#172554"/>
  <text x="285" y="305" fill="#BFDBFE" font-family="Arial, Helvetica, sans-serif" font-size="18" font-weight="700">Android Apps</text>

  <rect x="430" y="278" width="168" height="42" rx="21" fill="#0F3D34"/>
  <text x="476" y="305" fill="#BBF7D0" font-family="Arial, Helvetica, sans-serif" font-size="18" font-weight="700">API Work</text>

  <rect x="850" y="62" width="250" height="210" rx="26" fill="#0B1224" fill-opacity="0.95" stroke="#334155"/>
  <rect x="872" y="86" width="206" height="24" rx="12" fill="#111C34"/>
  <circle cx="890" cy="98" r="6" fill="#38BDF8"/>
  <circle cx="909" cy="98" r="6" fill="#8B5CF6"/>
  <circle cx="928" cy="98" r="6" fill="#22C55E"/>
  <rect x="872" y="126" width="98" height="60" rx="16" fill="#10213F"/>
  <rect x="986" y="126" width="92" height="60" rx="16" fill="#132540"/>
  <rect x="872" y="202" width="206" height="18" rx="9" fill="#1E293B"/>
  <rect x="872" y="230" width="148" height="18" rx="9" fill="#1E293B"/>
  <path d="M905 176C918 159 937 149 958 149C979 149 998 159 1011 176" stroke="#38BDF8" stroke-width="5" stroke-linecap="round"/>
  <path d="M930 168L958 140L986 168" stroke="#8B5CF6" stroke-width="5" stroke-linecap="round" stroke-linejoin="round"/>
</svg>

