<svg width="1280" height="320" viewBox="0 0 1280 320" fill="none" xmlns="http://www.w3.org/2000/svg">
  <defs>
    <linearGradient id="projBg" x1="0" y1="0" x2="1280" y2="320" gradientUnits="userSpaceOnUse">
      <stop stop-color="#081225"/>
      <stop offset="0.55" stop-color="#0D2142"/>
      <stop offset="1" stop-color="#123764"/>
    </linearGradient>
    <linearGradient id="waveGradA" x1="0" y1="0" x2="1" y2="0">
      <stop stop-color="#38BDF8"/>
      <stop offset="1" stop-color="#93C5FD"/>
    </linearGradient>
    <linearGradient id="waveGradB" x1="0" y1="0" x2="1" y2="0">
      <stop stop-color="#1D4ED8"/>
      <stop offset="1" stop-color="#60A5FA"/>
    </linearGradient>
    <style>
      .waveA { animation: waveA 10s ease-in-out infinite; }
      .waveB { animation: waveB 12s ease-in-out infinite; }
      .floatCard { animation: floatCard 6.2s ease-in-out infinite; transform-origin: center; }
      .floatChip { animation: floatChip 7.4s ease-in-out infinite; transform-origin: center; }
      @keyframes waveA {
        0%,100% { transform: translateX(0px) translateY(0px); }
        50% { transform: translateX(-16px) translateY(7px); }
      }
      @keyframes waveB {
        0%,100% { transform: translateX(0px) translateY(0px); }
        50% { transform: translateX(16px) translateY(-6px); }
      }
      @keyframes floatCard {
        0%,100% { transform: translateY(0px); }
        50% { transform: translateY(-8px); }
      }
      @keyframes floatChip {
        0%,100% { transform: translateY(0px); }
        50% { transform: translateY(-4px); }
      }
    </style>
  </defs>

  <rect width="1280" height="320" rx="32" fill="url(#projBg)"/>
  <circle cx="1090" cy="92" r="116" fill="#38BDF8" fill-opacity="0.08"/>
  <circle cx="1188" cy="248" r="102" fill="#8B5CF6" fill-opacity="0.08"/>

  <g class="floatCard">
    <rect x="56" y="56" width="180" height="180" rx="42" fill="#F8FAFC"/>
    <path d="M56 194C84 174 116 164 150 164C186 164 212 172 236 190V236H56V194Z" fill="#123A75"/>
    <path d="M56 216C86 202 118 198 152 198C186 198 214 206 236 220V236H56V216Z" fill="#1D4ED8"/>
    <path d="M56 234C88 224 118 222 146 222C184 222 212 228 236 238V236H56V234Z" fill="#7DD3FC"/>
    <path d="M86 214C112 204 138 204 168 212C192 218 212 220 232 214" stroke="#DBEAFE" stroke-width="5" stroke-linecap="round" opacity="0.8"/>
    <text x="86" y="152" fill="#133578" font-family="Inter, Arial, sans-serif" font-size="40" font-weight="800">Splæsh</text>
    <path d="M190 84C197 58 215 42 228 42C238 42 243 50 242 60C241 74 232 85 232 98C232 108 238 117 250 126C230 126 218 117 214 105C206 108 199 109 193 109C182 109 176 102 176 91C176 81 182 74 191 71C190 75 190 79 190 84Z" fill="#3B82F6"/>
    <circle cx="264" cy="88" r="14" fill="#60A5FA"/>
    <circle cx="278" cy="108" r="10" fill="#60A5FA"/>
  </g>

  <text x="280" y="110" fill="white" font-family="Inter, Arial, sans-serif" font-size="40" font-weight="800">Splæsh</text>
  <text x="280" y="146" fill="#DBEAFE" font-family="Inter, Arial, sans-serif" font-size="21">Android bathing app for Norway</text>
  <text x="280" y="188" fill="#CBD5E1" font-family="Inter, Arial, sans-serif" font-size="18">Weather maps • warnings • UV • point forecasts • recommendations</text>
  <text x="280" y="214" fill="#CBD5E1" font-family="Inter, Arial, sans-serif" font-size="18">and a custom bathing score in one app</text>

  <g class="floatChip">
    <rect x="280" y="236" width="196" height="42" rx="21" fill="#172554"/>
    <text x="334" y="263" fill="#BFDBFE" font-family="Inter, Arial, sans-serif" font-size="18" font-weight="800">Kotlin + Android</text>
  </g>
  <g class="floatChip">
    <rect x="492" y="236" width="176" height="42" rx="21" fill="#0F3D34"/>
    <text x="539" y="263" fill="#BBF7D0" font-family="Inter, Arial, sans-serif" font-size="18" font-weight="800">API Integration</text>
  </g>
  <g class="floatChip">
    <rect x="684" y="236" width="128" height="42" rx="21" fill="#3B1D6B"/>
    <text x="726" y="263" fill="#E9D5FF" font-family="Inter, Arial, sans-serif" font-size="18" font-weight="800">UI / UX</text>
  </g>

  <g class="floatCard">
    <rect x="952" y="76" width="230" height="150" rx="26" fill="#0B1224" stroke="#334155"/>
    <rect x="980" y="106" width="174" height="82" rx="18" fill="#10213F"/>
    <path d="M1006 162C1026 130 1058 117 1098 117C1124 117 1145 125 1158 137" stroke="#38BDF8" stroke-width="8" stroke-linecap="round"/>
    <path d="M1020 177C1042 149 1072 141 1104 141" stroke="#8B5CF6" stroke-width="8" stroke-linecap="round"/>
    <rect x="980" y="202" width="112" height="14" rx="7" fill="#172554"/>
    <rect x="1104" y="202" width="50" height="14" rx="7" fill="#0F3D34"/>
  </g>

  <g class="waveA">
    <path d="M0 258C90 240 176 244 266 258C352 272 442 292 548 286C662 278 742 232 852 232C966 232 1066 274 1184 278C1218 280 1248 278 1280 274V320H0V258Z" fill="url(#waveGradB)" fill-opacity="0.42"/>
  </g>
  <g class="waveB">
    <path d="M0 280C110 258 206 264 304 282C404 300 510 304 612 288C718 272 804 244 914 246C1042 248 1160 292 1280 290V320H0V280Z" fill="url(#waveGradA)" fill-opacity="0.62"/>
  </g>
</svg>
