<svg width="1200" height="500" viewBox="0 0 1200 500" fill="none" xmlns="http://www.w3.org/2000/svg">
  <defs>
    <linearGradient id="sbg" x1="0" y1="0" x2="1200" y2="500" gradientUnits="userSpaceOnUse">
      <stop stop-color="#081225"/>
      <stop offset="0.55" stop-color="#0D1F3A"/>
      <stop offset="1" stop-color="#17325D"/>
    </linearGradient>
    <linearGradient id="phone1" x1="0" y1="0" x2="1" y2="1">
      <stop stop-color="#7C3AED"/>
      <stop offset="1" stop-color="#0EA5E9"/>
    </linearGradient>
  </defs>
  <rect width="1200" height="500" rx="28" fill="url(#sbg)"/>
  <text x="50" y="64" fill="white" font-family="Arial, Helvetica, sans-serif" font-size="34" font-weight="700">Splæsh project preview</text>
  <text x="50" y="102" fill="#CBD5E1" font-family="Arial, Helvetica, sans-serif" font-size="22">Weather maps, warnings, point forecasts, recommendations, and a bathing score in one Android app.</text>

  <rect x="92" y="146" width="260" height="292" rx="34" fill="#0B1224" stroke="#334155"/>
  <rect x="112" y="180" width="220" height="160" rx="22" fill="#0F1E37"/>
  <path d="M136 298C164 246 217 216 280 216C297 216 313 218 327 223" stroke="#38BDF8" stroke-width="8" stroke-linecap="round"/>
  <path d="M164 320C194 274 246 252 302 252" stroke="#8B5CF6" stroke-width="8" stroke-linecap="round"/>
  <rect x="112" y="356" width="120" height="22" rx="11" fill="#172554"/>
  <rect x="240" y="356" width="92" height="22" rx="11" fill="#0F3D34"/>
  <text x="132" y="405" fill="white" font-family="Arial, Helvetica, sans-serif" font-size="22" font-weight="700">Weather layers</text>

  <rect x="470" y="146" width="260" height="292" rx="34" fill="#0B1224" stroke="#334155"/>
  <rect x="490" y="180" width="220" height="160" rx="22" fill="#11233F"/>
  <path d="M524 214L682 214L652 292L554 292Z" fill="#7F1D1D"/>
  <path d="M538 228L668 228L646 280L560 280Z" fill="#EF4444" fill-opacity="0.75"/>
  <circle cx="598" cy="258" r="18" fill="#FDE68A"/>
  <rect x="490" y="356" width="126" height="22" rx="11" fill="#3B1D6B"/>
  <rect x="624" y="356" width="86" height="22" rx="11" fill="#172554"/>
  <text x="548" y="405" fill="white" font-family="Arial, Helvetica, sans-serif" font-size="22" font-weight="700">Warnings + UV</text>

  <rect x="848" y="146" width="260" height="292" rx="34" fill="#0B1224" stroke="#334155"/>
  <rect x="868" y="180" width="220" height="160" rx="22" fill="url(#phone1)" fill-opacity="0.14"/>
  <rect x="888" y="204" width="180" height="26" rx="13" fill="#0B1224" fill-opacity="0.6"/>
  <rect x="888" y="242" width="150" height="22" rx="11" fill="#0B1224" fill-opacity="0.45"/>
  <rect x="888" y="274" width="164" height="22" rx="11" fill="#0B1224" fill-opacity="0.45"/>
  <circle cx="1042" cy="314" r="20" fill="#22C55E"/>
  <text x="912" y="405" fill="white" font-family="Arial, Helvetica, sans-serif" font-size="22" font-weight="700">Recommendations</text>
</svg>
